<?xml version="1.0" encoding="utf-8"?>
<!-- Generator: Adobe Illustrator 24.1.1, SVG Export Plug-In . SVG Version: 6.00 Build 0)  -->
<svg version="1.1" id="Layer_1" xmlns="http://www.w3.org/2000/svg" xmlns:xlink="http://www.w3.org/1999/xlink" x="0px" y="0px"
	 viewBox="0 0 512 512" style="enable-background:new 0 0 512 512;" xml:space="preserve">
<style type="text/css">
	.st0{fill:#333333;}
</style>
<g id="XMLID_2_">
	<path id="XMLID_8_" class="st0" d="M354.2,116.9h50.3L384,54.6L380.6,41c0-3.4-0.9-5.1-0.9-6h-0.9l-0.9,6c0,0,0,1.7-0.9,5.1
		c-0.9,3.4-1.7,6-2.6,8.5L354.2,116.9z M224.4,411.3c0,2.6-0.9,4.3-2.6,6.8l-91.3,91.3c-1.7,1.7-4.3,2.6-6.8,2.6
		c-2.6,0-4.3-0.9-6.8-2.6l-91.3-91.3c-2.6-3.4-3.4-6-1.7-10.2c1.7-3.4,4.3-6,8.5-6h54.6V9.4c0-2.6,0.9-5.1,2.6-6.8
		C91.3,0.9,93.9,0,96.4,0h54.6c2.6,0,5.1,0.9,6.8,2.6c1.7,1.7,2.6,4.3,2.6,6.8v393.4h54.6c2.6,0,5.1,0.9,6.8,2.6
		C223.6,406.2,224.4,408.7,224.4,411.3z M463.4,445.4V512H297v-25.6l105.8-151c2.6-3.4,4.3-6,6-7.7l3.4-2.6v-0.9c0,0-0.9,0-1.7,0
		c-0.9,0-1.7,0-2.6,0c-2.6,0.9-5.1,0.9-8.5,0.9h-66.6v33.3h-34.1v-65.7h162.1v25.6l-106.7,151c-0.9,1.7-3.4,4.3-6,7.7l-3.4,3.4v0.9
		l4.3-0.9c1.7,0,4.3-0.9,8.5-0.9h70.8v-34.1C428.4,445.4,463.4,445.4,463.4,445.4z M489,189.4v29.9h-81.9v-29.9h21.3l-13.7-41h-69.1
		l-13.7,41h21.3v29.9h-81.9v-29.9H291L356.7,0h46.1l65.7,189.4H489z"/>
</g>
</svg>
